<svg width="20" height="20" viewBox="0 0 20 20" fill="none" xmlns="http://www.w3.org/2000/svg">
<path d="M4.47679 20H0.330357V6.6473H4.47679V20ZM2.40134 4.82587C1.07545 4.82587 0 3.72766 0 2.40176C9.49017e-09 1.76489 0.252998 1.1541 0.703336 0.703763C1.15367 0.253425 1.76446 0.000427246 2.40134 0.000427246C3.03821 0.000427246 3.649 0.253425 4.09934 0.703763C4.54968 1.1541 4.80268 1.76489 4.80268 2.40176C4.80268 3.72766 3.72679 4.82587 2.40134 4.82587ZM19.9955 20H15.858V13.5C15.858 11.9509 15.8268 9.96426 13.7022 9.96426C11.5464 9.96426 11.2161 11.6473 11.2161 13.3884V20H7.07411V6.6473H11.0509V8.46873H11.1089C11.6625 7.41962 13.0147 6.31248 15.0321 6.31248C19.2286 6.31248 20 9.07587 20 12.6652V20H19.9955Z" fill="black"/>
</svg>
